<svg width="16" height="16" viewBox="0 0 16 16" fill="none" xmlns="http://www.w3.org/2000/svg">
<path fill-rule="evenodd" clip-rule="evenodd" d="M3.33333 3.16662C2.8731 3.16662 2.5 3.53971 2.5 3.99995V13.3333C2.5 13.7935 2.8731 14.1666 3.33333 14.1666H12.6667C13.1269 14.1666 13.5 13.7935 13.5 13.3333V3.99995C13.5 3.53971 13.1269 3.16662 12.6667 3.16662H3.33333ZM1.5 3.99995C1.5 2.98743 2.32081 2.16662 3.33333 2.16662H12.6667C13.6792 2.16662 14.5 2.98743 14.5 3.99995V13.3333C14.5 14.3458 13.6792 15.1666 12.6667 15.1666H3.33333C2.32081 15.1666 1.5 14.3458 1.5 13.3333V3.99995Z" fill="#74AF28"/>
<path fill-rule="evenodd" clip-rule="evenodd" d="M10.6667 0.833382C10.9428 0.833382 11.1667 1.05724 11.1667 1.33338V4.00005C11.1667 4.27619 10.9428 4.50005 10.6667 4.50005C10.3905 4.50005 10.1667 4.27619 10.1667 4.00005V1.33338C10.1667 1.05724 10.3905 0.833382 10.6667 0.833382Z" fill="#74AF28"/>
<path fill-rule="evenodd" clip-rule="evenodd" d="M5.33333 0.833382C5.60948 0.833382 5.83333 1.05724 5.83333 1.33338V4.00005C5.83333 4.27619 5.60948 4.50005 5.33333 4.50005C5.05719 4.50005 4.83333 4.27619 4.83333 4.00005V1.33338C4.83333 1.05724 5.05719 0.833382 5.33333 0.833382Z" fill="#74AF28"/>
<path fill-rule="evenodd" clip-rule="evenodd" d="M1.5 6.66662C1.5 6.39047 1.72386 6.16662 2 6.16662H14C14.2761 6.16662 14.5 6.39047 14.5 6.66662C14.5 6.94276 14.2761 7.16662 14 7.16662H2C1.72386 7.16662 1.5 6.94276 1.5 6.66662Z" fill="#74AF28"/>
</svg>
