<svg width="17" height="17" viewBox="0 0 17 17" fill="none" xmlns="http://www.w3.org/2000/svg">
<g clip-path="url(#clip0_3_1256)">
<path d="M6.3125 2.21875V5.125H15.0312V3.1875C15.0312 2.67285 14.5771 2.21875 14.0625 2.21875H6.3125ZM5.34375 2.21875H2.4375C1.89258 2.21875 1.46875 2.67285 1.46875 3.1875V5.125H5.34375V2.21875ZM1.46875 6.09375V9.96875H5.34375V6.09375H1.46875ZM1.46875 10.9375V12.875C1.46875 13.4199 1.89258 13.8438 2.4375 13.8438H5.34375V10.9375H1.46875ZM6.3125 13.8438H14.0625C14.5771 13.8438 15.0312 13.4199 15.0312 12.875V10.9375H6.3125V13.8438ZM15.0312 9.96875V6.09375H6.3125V9.96875H15.0312ZM0.5 3.1875C0.5 2.12793 1.34766 1.25 2.4375 1.25H14.0625C15.1221 1.25 16 2.12793 16 3.1875V12.875C16 13.9648 15.1221 14.8125 14.0625 14.8125H2.4375C1.34766 14.8125 0.5 13.9648 0.5 12.875V3.1875Z" fill="#262626"/>
</g>
<defs>
<clipPath id="clip0_3_1256">
<rect width="16" height="16" fill="white" transform="translate(0.5 0.25)"/>
</clipPath>
</defs>
</svg>
