<svg width="17" height="17" viewBox="0 0 17 17" fill="none" xmlns="http://www.w3.org/2000/svg">
<path fill-rule="evenodd" clip-rule="evenodd" d="M11.8867 2.15629C11.4445 2.06304 10.9861 2.05577 10.5369 2.13762C9.83694 2.26516 9.19248 2.60298 8.68939 3.10606C8.18631 3.60915 7.84849 4.25361 7.72096 4.95356C7.59342 5.6535 7.68224 6.3757 7.97556 7.02389C8.06136 7.2135 8.02074 7.43642 7.87358 7.58358L3.26691 12.1902C3.09546 12.3617 2.99915 12.5942 2.99915 12.8367C2.99915 13.0792 3.09546 13.3117 3.26691 13.4831C3.43836 13.6546 3.67089 13.7509 3.91336 13.7509C4.15582 13.7509 4.38836 13.6546 4.55981 13.4831L9.16647 8.87647C9.31363 8.72932 9.53656 8.6887 9.72616 8.7745C10.3744 9.06782 11.0965 9.15663 11.7965 9.0291C12.4964 8.90157 13.1409 8.56375 13.644 8.06066C14.1471 7.55757 14.4849 6.91311 14.6124 6.21317C14.6943 5.76393 14.687 5.30552 14.5938 4.8634L12.65 6.80712C12.432 7.02088 12.1387 7.1406 11.8334 7.1406C11.528 7.1406 11.2348 7.02086 11.0167 6.8071L11.0131 6.8036L9.94294 5.73338C9.72917 5.5153 9.60945 5.22207 9.60945 4.91669C9.60945 4.61131 9.72919 4.31811 9.94295 4.10003L9.94646 4.09646L11.8867 2.15629ZM10.3576 1.15382C11.2576 0.989851 12.1861 1.10404 13.0195 1.48116C13.169 1.54883 13.2758 1.68559 13.3053 1.84707C13.3347 2.00855 13.283 2.17418 13.1669 2.29025L10.6559 4.80122C10.6261 4.83225 10.6095 4.87363 10.6095 4.91669C10.6095 4.95977 10.6261 5.00114 10.6559 5.03217L11.7179 6.0941C11.7489 6.12392 11.7903 6.1406 11.8334 6.1406C11.8764 6.1406 11.9178 6.12393 11.9488 6.09412L14.4598 3.58314C14.5759 3.46708 14.7415 3.41537 14.903 3.44479C15.0645 3.47421 15.2012 3.58102 15.2689 3.73056C15.646 4.56395 15.7602 5.49248 15.5962 6.39242C15.4323 7.29235 14.9979 8.12094 14.3511 8.76777C13.7043 9.41459 12.8757 9.84893 11.9757 10.0129C11.1914 10.1558 10.3853 10.0874 9.63937 9.81779L5.26691 14.1902C4.90793 14.5492 4.42104 14.7509 3.91336 14.7509C3.40568 14.7509 2.91879 14.5492 2.55981 14.1902C2.20082 13.8313 1.99915 13.3444 1.99915 12.8367C1.99915 12.329 2.20082 11.8421 2.55981 11.4831L6.93226 7.11069C6.66263 6.36479 6.59424 5.55868 6.73715 4.77431C6.90112 3.87437 7.33546 3.04578 7.98229 2.39896C8.62911 1.75213 9.4577 1.31779 10.3576 1.15382Z" fill="#262626"/>
</svg>
